<svg width="26" height="26" viewBox="0 0 26 26" fill="none" xmlns="http://www.w3.org/2000/svg">
<g clip-path="url(#clip0_232_21895)">
<rect width="26" height="26" rx="5" fill="#A10000"/>
<path d="M8 13C10.7614 13 13 10.7614 13 8C13 5.23858 10.7614 3 8 3C5.23858 3 3 5.23858 3 8C3 10.7614 5.23858 13 8 13Z" fill="#FFE6BA"/>
<path d="M15.9998 15.9996H10V21.9995H15.9998V15.9996Z" fill="black"/>
<path d="M9.99978 17.9996L7.99978 15.9996L5.29248 11.3064L6.39989 6.7572L6.63198 6.8278C6.91242 6.91315 7.15704 7.0883 7.3282 7.32627C7.49936 7.56425 7.58758 7.85188 7.57928 8.1449L7.50728 10.6931L9.99978 12.9997V17.9996Z" fill="#001932"/>
<path d="M10.9999 11.9998H9L9.0298 6.75722L10.0297 2.75732L10.4659 2.97812C10.6985 3.09584 10.8912 3.27936 11.0202 3.50585C11.1492 3.73233 11.2088 3.99176 11.1914 4.25182L10.9999 7.12292V11.9998Z" fill="#001932"/>
<path d="M14 11.9998H12V6.69721L14.1679 3.44531L14.5486 3.95281C14.6872 4.13762 14.7775 4.35407 14.8114 4.58257C14.8453 4.81108 14.8217 5.04443 14.7427 5.26151L14 7.30261V11.9998Z" fill="#001932"/>
<path d="M16.9995 12.9996H14.9995V7.58575L17.2924 5.29285L17.5204 5.59685C17.6771 5.80591 17.7729 6.05423 17.7973 6.31436C17.8217 6.57449 17.7737 6.8363 17.6586 7.07085L16.9995 8.41385V12.9996Z" fill="#001932"/>
<path d="M16.7065 15.7067L15.2925 13.5414L18.5854 10.9998H20.6994V11.2646C20.6994 11.4776 20.6312 11.685 20.5049 11.8566C20.3786 12.0281 20.2008 12.1548 19.9974 12.2181L19.4135 12.3997L16.7065 15.7067Z" fill="#001932"/>
<path d="M14.9998 17.9996H10L9 12.9997V10.8998H16.9998V15.9996C16.9998 16.2622 16.9481 16.5223 16.8476 16.7649C16.7471 17.0076 16.5997 17.2281 16.414 17.4138C16.2283 17.5995 16.0078 17.7468 15.7652 17.8473C15.5225 17.9478 15.2624 17.9996 14.9998 17.9996Z" fill="#001932"/>
<path d="M19.9996 22.9995H6C6 22.9995 6.99989 19.9995 12.9998 19.9995C18.9997 19.9995 19.9996 22.9995 19.9996 22.9995Z" fill="#738394"/>
</g>
<defs>
<clipPath id="clip0_232_21895">
<rect width="26" height="26" fill="white"/>
</clipPath>
</defs>
</svg>
